<?xml version="1.0" encoding="UTF-8" standalone="no"?>
<!-- Created with Fritzing (http://www.fritzing.org/) -->

<svg
   xmlns:dc="http://purl.org/dc/elements/1.1/"
   xmlns:cc="http://creativecommons.org/ns#"
   xmlns:rdf="http://www.w3.org/1999/02/22-rdf-syntax-ns#"
   xmlns:svg="http://www.w3.org/2000/svg"
   xmlns="http://www.w3.org/2000/svg"
   xmlns:sodipodi="http://sodipodi.sourceforge.net/DTD/sodipodi-0.dtd"
   xmlns:inkscape="http://www.inkscape.org/namespaces/inkscape"
   version="1.2"
   x="0in"
   y="0in"
   width="45"
   height="72"
   viewBox="0 0 35.999999 57.600001"
   id="svg3823"
   inkscape:version="0.48.5 r10040"
   sodipodi:docname="drv8833_pcb.svg">
  <metadata
     id="metadata3874">
    <rdf:RDF>
      <cc:Work
         rdf:about="">
        <dc:format>image/svg+xml</dc:format>
        <dc:type
           rdf:resource="http://purl.org/dc/dcmitype/StillImage" />
      </cc:Work>
    </rdf:RDF>
  </metadata>
  <defs
     id="defs3872" />
  <sodipodi:namedview
     pagecolor="#ffffff"
     bordercolor="#666666"
     borderopacity="1"
     objecttolerance="10"
     gridtolerance="10"
     guidetolerance="10"
     inkscape:pageopacity="0"
     inkscape:pageshadow="2"
     inkscape:window-width="1366"
     inkscape:window-height="701"
     id="namedview3870"
     showgrid="true"
     units="in"
     inkscape:zoom="14.174174"
     inkscape:cx="40.164406"
     inkscape:cy="11.975726"
     inkscape:window-x="0"
     inkscape:window-y="27"
     inkscape:window-maximized="1"
     inkscape:current-layer="copper0">
    <inkscape:grid
       type="xygrid"
       id="grid3876"
       empspacing="1"
       visible="true"
       enabled="true"
       snapvisiblegridlinesonly="true"
       units="in"
       spacingx="0.05in"
       spacingy="0.05in" />
  </sodipodi:namedview>
  <g
     partID="64400"
     id="g3825"
     transform="translate(-1.4730623,-8.6399997)">
    <g
       id="copper0">
      <circle
         cx="5.04"
         cy="12.24"
         id="connector1pin"
         r="2.0880001"
         d="m 7.128,12.24 c 0,1.15317 -0.9348294,2.088 -2.088,2.088 -1.1531706,0 -2.0880001,-0.93483 -2.0880001,-2.088 0,-1.153171 0.9348295,-2.088 2.0880001,-2.088 1.1531706,0 2.088,0.934829 2.088,2.088 z"
         sodipodi:cx="5.04"
         sodipodi:cy="12.24"
         sodipodi:rx="2.0880001"
         sodipodi:ry="2.0880001"
         style="fill:none;stroke:#ffbf00;stroke-width:1.44000006" />
      <circle
         cx="5.04"
         cy="19.440001"
         id="connector2pin"
         r="2.0880001"
         d="m 7.128,19.440001 c 0,1.15317 -0.9348294,2.088 -2.088,2.088 -1.1531706,0 -2.0880001,-0.93483 -2.0880001,-2.088 0,-1.153171 0.9348295,-2.088001 2.0880001,-2.088001 1.1531706,0 2.088,0.93483 2.088,2.088001 z"
         sodipodi:cx="5.04"
         sodipodi:cy="19.440001"
         sodipodi:rx="2.0880001"
         sodipodi:ry="2.0880001"
         style="fill:none;stroke:#ffbf00;stroke-width:1.44000006" />
      <circle
         cx="5.04"
         cy="26.639999"
         id="connector3pin"
         r="2.0880001"
         d="m 7.128,26.639999 c 0,1.153171 -0.9348294,2.088 -2.088,2.088 -1.1531706,0 -2.0880001,-0.934829 -2.0880001,-2.088 0,-1.15317 0.9348295,-2.088 2.0880001,-2.088 1.1531706,0 2.088,0.93483 2.088,2.088 z"
         sodipodi:cx="5.04"
         sodipodi:cy="26.639999"
         sodipodi:rx="2.0880001"
         sodipodi:ry="2.0880001"
         style="fill:none;stroke:#ffbf00;stroke-width:1.44000006" />
      <circle
         cx="5.04"
         cy="33.84"
         id="connector4pin"
         r="2.0880001"
         d="m 7.128,33.84 c 0,1.153171 -0.9348294,2.088 -2.088,2.088 -1.1531706,0 -2.0880001,-0.934829 -2.0880001,-2.088 0,-1.15317 0.9348295,-2.088 2.0880001,-2.088 1.1531706,0 2.088,0.93483 2.088,2.088 z"
         sodipodi:cx="5.04"
         sodipodi:cy="33.84"
         sodipodi:rx="2.0880001"
         sodipodi:ry="2.0880001"
         style="fill:none;stroke:#ffbf00;stroke-width:1.44000006" />
      <circle
         cx="5.04"
         cy="41.040001"
         id="connector5pin"
         r="2.0880001"
         d="m 7.128,41.040001 c 0,1.153171 -0.9348294,2.088 -2.088,2.088 -1.1531706,0 -2.0880001,-0.934829 -2.0880001,-2.088 0,-1.153171 0.9348295,-2.088 2.0880001,-2.088 1.1531706,0 2.088,0.934829 2.088,2.088 z"
         sodipodi:cx="5.04"
         sodipodi:cy="41.040001"
         sodipodi:rx="2.0880001"
         sodipodi:ry="2.0880001"
         style="fill:none;stroke:#ffbf00;stroke-width:1.44000006" />
      <circle
         cx="5.04"
         cy="48.240002"
         id="connector6pin"
         r="2.0880001"
         d="m 7.128,48.240002 c 0,1.15317 -0.9348294,2.088 -2.088,2.088 -1.1531706,0 -2.0880001,-0.93483 -2.0880001,-2.088 0,-1.153171 0.9348295,-2.088 2.0880001,-2.088 1.1531706,0 2.088,0.934829 2.088,2.088 z"
         sodipodi:cx="5.04"
         sodipodi:cy="48.240002"
         sodipodi:rx="2.0880001"
         sodipodi:ry="2.0880001"
         style="fill:none;stroke:#ffbf00;stroke-width:1.44000006" />
      <circle
         transform="translate(0.06483385,7.1999988)"
         cx="5.04"
         cy="48.240002"
         id="connector6pin-3"
         r="2.0880001"
         d="m 7.128,48.240002 c 0,1.15317 -0.9348294,2.088 -2.088,2.088 -1.1531706,0 -2.0880001,-0.93483 -2.0880001,-2.088 0,-1.153171 0.9348295,-2.088 2.0880001,-2.088 1.1531706,0 2.088,0.934829 2.088,2.088 z"
         sodipodi:cx="5.04"
         sodipodi:cy="48.240002"
         sodipodi:rx="2.0880001"
         sodipodi:ry="2.0880001"
         style="fill:none;stroke:#ffbf00;stroke-width:1.44000006" />
      <circle
         transform="translate(0.03306159,14.224088)"
         cx="5.04"
         cy="48.240002"
         id="connector6pin-6"
         r="2.0880001"
         d="m 7.128,48.240002 c 0,1.15317 -0.9348294,2.088 -2.088,2.088 -1.1531706,0 -2.0880001,-0.93483 -2.0880001,-2.088 0,-1.153171 0.9348295,-2.088 2.0880001,-2.088 1.1531706,0 2.088,0.934829 2.088,2.088 z"
         sodipodi:cx="5.04"
         sodipodi:cy="48.240002"
         sodipodi:rx="2.0880001"
         sodipodi:ry="2.0880001"
         style="fill:none;stroke:#ffbf00;stroke-width:1.44000006" />
      <circle
         transform="translate(28.776622,0)"
         cx="5.04"
         cy="12.24"
         id="connector1pin-4"
         r="2.0880001"
         d="m 7.128,12.24 c 0,1.15317 -0.9348294,2.088 -2.088,2.088 -1.1531706,0 -2.0880001,-0.93483 -2.0880001,-2.088 0,-1.153171 0.9348295,-2.088 2.0880001,-2.088 1.1531706,0 2.088,0.934829 2.088,2.088 z"
         sodipodi:cx="5.04"
         sodipodi:cy="12.24"
         sodipodi:rx="2.0880001"
         sodipodi:ry="2.0880001"
         style="fill:none;stroke:#ffbf00;stroke-width:1.44000006" />
      <circle
         transform="translate(28.776622,0)"
         cx="5.04"
         cy="19.440001"
         id="connector2pin-2"
         r="2.0880001"
         d="m 7.128,19.440001 c 0,1.15317 -0.9348294,2.088 -2.088,2.088 -1.1531706,0 -2.0880001,-0.93483 -2.0880001,-2.088 0,-1.153171 0.9348295,-2.088001 2.0880001,-2.088001 1.1531706,0 2.088,0.93483 2.088,2.088001 z"
         sodipodi:cx="5.04"
         sodipodi:cy="19.440001"
         sodipodi:rx="2.0880001"
         sodipodi:ry="2.0880001"
         style="fill:none;stroke:#ffbf00;stroke-width:1.44000006" />
      <circle
         transform="translate(28.776622,0)"
         cx="5.04"
         cy="26.639999"
         id="connector3pin-2"
         r="2.0880001"
         d="m 7.128,26.639999 c 0,1.153171 -0.9348294,2.088 -2.088,2.088 -1.1531706,0 -2.0880001,-0.934829 -2.0880001,-2.088 0,-1.15317 0.9348295,-2.088 2.0880001,-2.088 1.1531706,0 2.088,0.93483 2.088,2.088 z"
         sodipodi:cx="5.04"
         sodipodi:cy="26.639999"
         sodipodi:rx="2.0880001"
         sodipodi:ry="2.0880001"
         style="fill:none;stroke:#ffbf00;stroke-width:1.44000006" />
      <circle
         transform="translate(28.776622,0)"
         cx="5.04"
         cy="33.84"
         id="connector4pin-0"
         r="2.0880001"
         d="m 7.128,33.84 c 0,1.153171 -0.9348294,2.088 -2.088,2.088 -1.1531706,0 -2.0880001,-0.934829 -2.0880001,-2.088 0,-1.15317 0.9348295,-2.088 2.0880001,-2.088 1.1531706,0 2.088,0.93483 2.088,2.088 z"
         sodipodi:cx="5.04"
         sodipodi:cy="33.84"
         sodipodi:rx="2.0880001"
         sodipodi:ry="2.0880001"
         style="fill:none;stroke:#ffbf00;stroke-width:1.44000006" />
      <circle
         transform="translate(28.776622,0)"
         cx="5.04"
         cy="41.040001"
         id="connector5pin-9"
         r="2.0880001"
         d="m 7.128,41.040001 c 0,1.153171 -0.9348294,2.088 -2.088,2.088 -1.1531706,0 -2.0880001,-0.934829 -2.0880001,-2.088 0,-1.153171 0.9348295,-2.088 2.0880001,-2.088 1.1531706,0 2.088,0.934829 2.088,2.088 z"
         sodipodi:cx="5.04"
         sodipodi:cy="41.040001"
         sodipodi:rx="2.0880001"
         sodipodi:ry="2.0880001"
         style="fill:none;stroke:#ffbf00;stroke-width:1.44000006" />
      <circle
         transform="translate(28.776622,0)"
         cx="5.04"
         cy="48.240002"
         id="connector6pin-8"
         r="2.0880001"
         d="m 7.128,48.240002 c 0,1.15317 -0.9348294,2.088 -2.088,2.088 -1.1531706,0 -2.0880001,-0.93483 -2.0880001,-2.088 0,-1.153171 0.9348295,-2.088 2.0880001,-2.088 1.1531706,0 2.088,0.934829 2.088,2.088 z"
         sodipodi:cx="5.04"
         sodipodi:cy="48.240002"
         sodipodi:rx="2.0880001"
         sodipodi:ry="2.0880001"
         style="fill:none;stroke:#ffbf00;stroke-width:1.44000006" />
      <circle
         transform="translate(28.841456,7.199998)"
         cx="5.04"
         cy="48.240002"
         id="connector6pin-3-5"
         r="2.0880001"
         d="m 7.128,48.240002 c 0,1.15317 -0.9348294,2.088 -2.088,2.088 -1.1531706,0 -2.0880001,-0.93483 -2.0880001,-2.088 0,-1.153171 0.9348295,-2.088 2.0880001,-2.088 1.1531706,0 2.088,0.934829 2.088,2.088 z"
         sodipodi:cx="5.04"
         sodipodi:cy="48.240002"
         sodipodi:rx="2.0880001"
         sodipodi:ry="2.0880001"
         style="fill:none;stroke:#ffbf00;stroke-width:1.44000006" />
      <circle
         transform="translate(28.809684,14.224088)"
         cx="5.04"
         cy="48.240002"
         id="connector6pin-6-0"
         r="2.0880001"
         d="m 7.128,48.240002 c 0,1.15317 -0.9348294,2.088 -2.088,2.088 -1.1531706,0 -2.0880001,-0.93483 -2.0880001,-2.088 0,-1.153171 0.9348295,-2.088 2.0880001,-2.088 1.1531706,0 2.088,0.934829 2.088,2.088 z"
         sodipodi:cx="5.04"
         sodipodi:cy="48.240002"
         sodipodi:rx="2.0880001"
         sodipodi:ry="2.0880001"
         style="fill:none;stroke:#ffbf00;stroke-width:1.44000006" />
    </g>
  </g>
</svg>
